<svg t="1693828890426" class="icon" viewBox="0 0 1024 1024" version="1.1" xmlns="http://www.w3.org/2000/svg" p-id="14914" width="16" height="16"><path d="M511.998914 0C229.230319 0 0 229.230319 0 511.998914s229.230319 512 511.998914 512 511.998914-229.231405 511.998915-512S794.768595 0 511.998914 0z m0 942.078914c-237.518499 0-430.078914-192.552817-430.078914-430.08S274.474988 81.92 511.998914 81.92s430.08 192.554988 430.08 430.078914-192.552817 430.077829-430.08 430.077829z" fill="#63C532" p-id="14915"></path><path d="M190.045195 585.059735q42.727277 4.05019 72.412746 9.894795l-8.995959 44.073359q-39.128676-8.994873-71.737534-13.718104zM379.172013 412.124991l25.864332 25.861075-20.914221 72.63637 47.004347-47.004346 96.923396 96.924482q10.686161 10.685076 12.651009 21.08248a27.664175 27.664175 0 0 1-3.766861 19.960022q-5.734964 9.55936-32.047629 35.193554-12.141885-8.096037-29.008086-17.316705 11.468843-10.118418 18.439164-17.090911 9.444291-9.444291-0.449418-19.340171l-3.822224-3.82331-30.36611 30.365025 33.732403 33.732403-26.985706 26.986791-33.733488-33.732403-29.457505 29.461847 33.957112 33.958197-28.332874 28.332874-121.21585-121.214765 42.728362-42.726191-39.353385 9.219583-1.800929-24.73753-31.707851 31.708936-23.38819-23.387105z m194.524177 167.987889q10.339871 24.285941 17.989747 40.028598l-119.19347 117.389284q-21.590518 20.463717-40.760259 28.277511a85.466494 85.466494 0 0 1-38.173391 6.579523l3.598601 52.620986-47.899926-21.813056 3.148097-40.029683-61.616945-61.616945-20.015384 20.014299-29.680043-29.684385 48.124635-48.124635 91.977628 91.976542q32.045457 5.286632 66.341261-29.010257l51.610338-50.260999q33.395883-33.395883 74.549111-76.346783z m-210.041039-105.691389l-66.116552 66.110039q21.928125-5.958588 50.036289-12.932166z m-13.718104 138.299162l29.459675-29.460761-13.718104-13.718105-29.459676 29.460761z m33.507694 33.507694l29.459675-29.460761-13.718104-13.718104-29.459676 29.460761z m39.578094-134.029691l-30.361769 30.357426 13.721362 13.715933 30.358511-30.358511z m16.867287 77.58431l30.358512-30.362854-13.718105-13.718104-30.357426 30.358511zM422.348708 351.405797q40.254392 6.973578 70.38928 14.168608-1.574049 6.523074-12.369851 45.200161-35.082828-10.339871-68.363642-18.439165z m379.153559-4.046933q12.140799 25.184777 20.013213 40.253306L691.42091 513.884516q-15.964109 15.292153-32.718499 21.811971a64.698823 64.698823 0 0 1-33.733489 3.936207q-0.677384 37.560055 0.449418 54.871332l-47.899926-22.708635 3.373892-41.153228-62.068534-62.071791-20.463717 20.464802-29.684384-29.68547 51.49744-51.497441 91.52821 91.527124q35.864425 3.266422 63.86512-24.740786l35.195726-34.293633q34.744137-34.747393 90.7401-92.986104zM546.934108 229.521247l32.607773-32.607773 37.105209 37.105209 32.608858-32.6132 27.2115 27.2115-32.609943 32.612115 74.885631 74.885631q19.231617 19.227274 20.242264 37.893319t-14.393317 35.193555q-15.402879 16.530766-43.403575 44.52712-17.094167-11.243049-40.479101-23.837609 28.558669-24.958982 38.455635-34.857034 16.638236-16.638236-1.798758-35.081742l-66.110039-66.115467-89.503657 89.503657-27.216928-27.2115 89.503657-89.502572z m6.971407 127.958206q32.160526 2.025638 86.579183 8.770164-3.372806 21.36798-6.296194 46.776381-40.480187-6.296194-86.803893-12.144056z" fill="#63C532" p-id="14916"></path></svg>